<?xml version="1.0" encoding="UTF-8"?>
<svg version="1.1" xmlns="http://www.w3.org/2000/svg" width="1024" height="1024">
<path d="M0 0 C337.92 0 675.84 0 1024 0 C1024 337.92 1024 675.84 1024 1024 C686.08 1024 348.16 1024 0 1024 C0 686.08 0 348.16 0 0 Z " fill="#FEFEFE" transform="translate(0,0)"/>
<path d="M0 0 C2.31383064 -0.00230659 4.62766054 -0.00548444 6.94148892 -0.00945449 C13.27753049 -0.017784 19.61351162 -0.01368554 25.94955337 -0.00748205 C32.08812812 -0.0024356 38.22669696 -0.0087557 44.36527002 -0.01377678 C57.69059992 -0.02429115 71.01591061 -0.02340219 84.34124233 -0.01761896 C96.00453742 -0.01258211 107.66782548 -0.01127711 119.33112144 -0.01366425 C120.10564638 -0.01381702 120.88017131 -0.01396979 121.67816669 -0.01412719 C124.8224772 -0.0147499 127.96678771 -0.0153867 131.11109821 -0.01604671 C160.59315077 -0.02216139 190.07519111 -0.01662339 219.55724178 -0.00585292 C245.7277175 0.00363509 271.89817375 0.00279101 298.06864929 -0.0067749 C327.4932487 -0.01749441 356.91783731 -0.02172487 386.3424384 -0.01555037 C389.48185456 -0.01490898 392.62127071 -0.01428329 395.76068687 -0.01366425 C396.92013309 -0.01342701 396.92013309 -0.01342701 398.10300247 -0.01318499 C409.75446548 -0.01091399 421.40592066 -0.01356329 433.05738258 -0.01862335 C446.3134401 -0.02435168 459.56947544 -0.02289146 472.82553021 -0.01206186 C479.58593114 -0.00672048 486.34629025 -0.00473146 493.10669136 -0.01136017 C499.30163655 -0.01734242 505.49650593 -0.01400699 511.6914443 -0.00340506 C513.92618353 -0.00118064 516.16092923 -0.00228566 518.39566425 -0.00715664 C534.74984964 -0.04005414 550.44567575 0.31344514 566.05912781 5.75396729 C567.07394226 6.1014502 568.08875671 6.44893311 569.13432312 6.8069458 C603.557184 19.03725558 630.06811263 43.84990945 646.05912781 76.50396729 C656.61341245 98.75201279 658.55278908 120.81395924 658.50732422 145.11376953 C658.51034878 147.41481406 658.51423978 149.71585758 658.51891679 152.01689935 C658.52916623 158.30842308 658.52702275 164.59988963 658.52273619 170.89141798 C658.52051775 176.98995026 658.52768888 183.08846552 658.53449645 189.18699318 C658.54970071 203.191583 658.55144519 217.19615468 658.54897342 231.20075104 C658.54713756 242.01878752 658.54890651 252.83681808 658.55319786 263.65485382 C658.55380027 265.21155431 658.55440147 266.76825481 658.55500146 268.3249553 C658.55590876 270.67103685 658.55681743 273.0171184 658.55773381 275.36319995 C658.56615801 297.16346816 658.57050273 318.96373414 658.5663271 340.76400375 C658.56617072 341.58507039 658.56601434 342.40613702 658.56585323 343.25208447 C658.5650475 347.41314528 658.56420173 351.57420609 658.56333993 355.73526689 C658.56316884 356.56159938 658.56299775 357.38793187 658.56282148 358.23930473 C658.56247482 359.91034792 658.56212629 361.58139111 658.56177589 363.2524343 C658.55641976 389.24872694 658.56434823 415.24498566 658.58280945 441.24127197 C658.60354884 470.47950304 658.61424847 499.7177131 658.61023396 528.95595193 C658.60983864 532.07657385 658.60947709 535.19719576 658.60913658 538.31781769 C658.60904585 539.08613711 658.60895512 539.85445654 658.60886164 540.64605837 C658.60769815 552.21879785 658.61432497 563.79151603 658.6249485 575.36425018 C658.6370259 588.53380966 658.63853028 601.70332237 658.62615833 614.87288257 C658.62013217 621.58710834 658.61914591 628.30123161 658.63116074 635.01545715 C658.64204863 641.17165142 658.63888156 647.32767851 658.62489905 653.48386505 C658.62226013 655.70110204 658.62459309 657.91835225 658.63263492 660.13557622 C658.76837306 700.37987524 646.50416531 736.81457733 617.99662781 765.94146729 C593.93338193 789.74292227 560.72804392 804.47833177 526.79362488 804.3742218 C525.76590139 804.37507623 524.7381779 804.37593065 523.67931128 804.37681097 C520.2492582 804.37845288 516.81925447 804.37296553 513.38920593 804.36749268 C510.92500306 804.3672105 508.46080011 804.36736913 505.99659729 804.36793518 C500.69832734 804.36816261 495.40007262 804.36533345 490.10180664 804.35969734 C482.44150146 804.3515539 474.78120222 804.34896421 467.12089318 804.34770935 C454.69112165 804.3455233 442.2613567 804.33887533 429.83158875 804.32940674 C417.76062554 804.32022106 405.68966412 804.31314588 393.61869812 804.30889893 C392.87405101 804.3086362 392.12940391 804.30837348 391.36219174 804.30810279 C387.62633901 804.30679771 383.89048627 804.30553401 380.15463352 804.30429089 C349.1852935 804.29393219 318.21596166 804.27625144 287.24662781 804.25396729 C288.19922823 802.97038117 289.15368932 801.68817578 290.1089325 800.40655518 C290.6402478 799.6923793 291.17156311 798.97820343 291.71897888 798.24238586 C293.50888358 795.9126099 295.45723231 793.80481033 297.49662781 791.69146729 C312.81195329 774.85747928 326.79765523 750.73159946 326.45365906 727.40240479 C325.36036182 710.77603551 318.58080824 696.45188811 306.24662781 685.25396729 C295.80034961 676.61702155 284.2156779 669.63075678 272.44975281 662.96490479 C271.40037537 662.36524902 270.35099792 661.76559326 269.26982117 661.14776611 C267.18592529 659.95916426 265.09588505 658.78124704 262.99882507 657.61602783 C245.44055472 647.5973078 245.44055472 647.5973078 242.24662781 639.25396729 C241.19098508 629.04942089 245.92472345 620.04055047 252.24662781 612.25396729 C256.0836204 608.09138671 260.17037288 604.17940497 264.24662781 600.25396729 C278.60201432 586.34785516 285.62842032 569.30622859 286.34973145 549.41001892 C286.40171967 546.12666159 286.42422686 542.8443571 286.43608093 539.56060791 C286.44437424 538.31461319 286.45266754 537.06861847 286.46121216 535.78486633 C286.47857203 533.08082441 286.49423901 530.37683665 286.50698853 527.67277527 C286.52755175 523.32972726 286.55518411 518.98674008 286.58366394 514.64373779 C286.63856554 506.12741412 286.68646794 497.61105803 286.73360443 489.09468842 C286.80106933 476.96906813 286.8728255 464.84347495 286.95092773 452.7179184 C286.9605564 451.22185057 286.97010848 449.72578225 286.97958374 448.22971344 C287.17026441 418.23286457 287.62999322 388.24525174 288.24662781 358.25396729 C290.60815964 357.28724177 292.97163295 356.32582423 295.33647156 355.36724854 C295.99691467 355.09626343 296.65735779 354.82527832 297.33781433 354.54608154 C303.17537455 352.18774308 309.07235891 350.50320073 315.24662781 349.25396729 C316.13608093 349.06834229 317.02553406 348.88271729 317.94194031 348.69146729 C322.48957652 348.08941616 326.97667817 348.06971035 331.55912781 348.06646729 C332.4582489 348.05422119 333.35737 348.0419751 334.28373718 348.02935791 C336.94827873 348.02357799 339.58628254 348.10787171 342.24662781 348.25396729 C343.44811462 348.30689941 343.44811462 348.30689941 344.6738739 348.36090088 C348.32686745 348.80465015 350.48899778 349.4680863 353.07987976 352.15557861 C354.9621301 354.77978051 356.61343448 357.46791814 358.24662781 360.25396729 C359.5501843 362.36273976 360.8549162 364.47078601 362.16069031 366.57818604 C362.83003601 367.67823975 363.49938171 368.77829346 364.18901062 369.91168213 C367.55084379 375.37246714 371.09259314 380.71286733 374.62162781 386.06646729 C376.05997747 388.26382802 377.49747246 390.46174842 378.93412781 392.66021729 C379.64826843 393.75205322 380.36240906 394.84388916 381.09819031 395.96881104 C383.2106555 399.19896235 385.32250581 402.42951471 387.43412781 405.66021729 C388.82994332 407.7956456 390.22577669 409.93106224 391.62162781 412.06646729 C392.31320984 413.12446533 393.00479187 414.18246338 393.71733093 415.27252197 C397.52549925 421.09688243 401.33699314 426.9190354 405.15287781 432.73834229 C415.48747209 448.49900061 425.79069688 464.27643432 435.93852234 480.15826416 C447.8529533 498.80300595 459.97098082 517.31219681 472.10102844 535.81695557 C480.62605258 548.82256586 489.11838584 561.84907128 497.5464325 574.91778564 C499.33678149 577.68992877 501.13512166 580.45684595 502.93363953 583.22369385 C504.2682002 585.28732466 505.58766419 587.36012837 506.90678406 589.43365479 C513.29494321 599.38299479 519.454133 607.24242611 531.16459656 610.84381104 C540.6828244 612.71888406 550.42727566 611.09655516 558.49662781 605.69146729 C563.76351138 601.42881709 568.06801304 594.99965606 569.24662781 588.25396729 C569.46656569 586.09356475 569.60348328 583.92403831 569.68412781 581.75396729 C569.74471375 580.62990479 569.80529968 579.50584229 569.86772156 578.34771729 C568.91393107 566.46759276 558.40302867 554.73114627 551.87162781 545.25396729 C550.85790708 543.77267518 549.84488248 542.29090643 548.83256531 540.80865479 C547.34743768 538.63471364 545.8617177 536.4612017 544.37315369 534.28961182 C540.27699973 528.31323609 536.25125319 522.29203211 532.24662781 516.25396729 C530.93307203 514.28765689 529.6192656 512.32151391 528.30522156 510.35552979 C523.93744819 503.80333772 519.62040602 497.21837292 515.30912781 490.62896729 C514.47891859 489.36079877 513.64867707 488.09265139 512.81840515 486.82452393 C510.70335391 483.59372974 508.58898416 480.36249019 506.47483826 477.13110352 C505.29103841 475.32184227 504.10701356 473.51272851 502.92289734 471.70367432 C494.19518697 458.36943261 485.48492962 445.02409422 476.80717468 431.6572876 C474.12189732 427.52182603 471.43409458 423.38800623 468.74662781 419.25396729 C467.66589291 417.59121059 466.58516374 415.92845018 465.50444031 414.26568604 C463.31221266 410.89297741 461.11944873 407.52061824 458.92631531 404.14849854 C453.89941532 396.41839828 448.87633194 388.6859594 443.87162781 380.94146729 C439.55542374 374.26359666 435.21679172 367.60052601 430.87162781 360.94146729 C429.91171936 359.47012329 429.91171936 359.47012329 428.93241882 357.96905518 C425.24965498 352.32401446 425.24965498 352.32401446 421.56645203 346.67926025 C414.38274879 335.66657982 407.26669534 324.61244804 400.1882782 313.53179932 C396.06881217 307.08750569 391.92395154 300.66088955 387.74662781 294.25396729 C374.22945975 273.51431862 360.98241566 252.59806894 347.71928406 231.69537354 C342.10520648 222.85277522 336.46781319 214.02772562 330.74662781 205.25396729 C324.42680291 195.56216172 318.21152448 185.80573654 312.01274109 176.03619385 C308.51894743 170.53228557 305.01740378 165.03329938 301.51445007 159.53521729 C298.48812223 154.78363155 295.47037418 150.02688954 292.46537781 145.26177979 C291.84276062 144.27693604 291.22014343 143.29209229 290.57865906 142.27740479 C289.39624939 140.4067268 288.21637371 138.5344436 287.03959656 136.66021729 C279.33974191 124.2724272 279.33974191 124.2724272 267.62162781 116.00396729 C258.68846673 114.01882038 250.20104917 114.56125595 242.24662781 119.25396729 C236.50581163 124.54521107 232.60282708 131.20750974 228.68412781 137.87896729 C227.45291166 139.9373707 226.21979 141.99463537 224.98490906 144.05084229 C224.36309753 145.08789307 223.74128601 146.12494385 223.10063171 147.19342041 C220.25988238 151.88286388 217.32510811 156.50993988 214.37162781 161.12896729 C213.51504578 162.46894775 213.51504578 162.46894775 212.64115906 163.83599854 C211.46019033 165.68093412 210.27837395 167.52532736 209.0957489 169.36920166 C207.148825 172.40654689 205.20705926 175.44714468 203.26615906 178.48834229 C195.471765 190.6951687 187.6218302 202.86410788 179.71537781 214.99859619 C172.1383448 226.63367447 164.64013185 238.31841081 157.16069031 250.01641846 C151.12347456 259.4553178 145.04382722 268.86606474 138.94194031 278.26324463 C132.72102878 287.84538092 126.5599062 297.46358991 120.43437195 307.10699463 C116.50498295 313.28871863 112.54601611 319.44996308 108.5554657 325.59234619 C105.89805283 329.68750101 103.26129624 333.79500182 100.64115906 337.91412354 C93.24117847 349.54094036 85.72704228 361.07414485 78.04371643 372.51452637 C71.96411237 381.5764207 66.11130513 390.76411324 60.36528015 400.04156494 C56.72991923 405.90501867 53.01499297 411.69191375 49.14945984 417.40557861 C45.19975377 423.26604513 41.4162378 429.22980187 37.62162781 435.19146729 C31.81449342 444.30107015 25.90465561 453.33151491 19.88969421 462.30499268 C12.31469134 473.6164746 4.84883201 484.99943439 -2.62226868 496.37969971 C-9.15531485 506.32736731 -15.73017632 516.24604682 -22.34225464 526.14135742 C-25.80900157 531.33148757 -29.26942112 536.52582992 -32.72602844 541.72271729 C-34.80155208 544.83769566 -36.89493763 547.93976757 -38.99946594 551.03521729 C-41.96774944 555.40943518 -44.88310638 559.81486766 -47.75337219 564.25396729 C-48.67569641 565.66935791 -48.67569641 565.66935791 -49.61665344 567.11334229 C-53.9676004 574.61412972 -53.97695277 582.73645489 -52.12446594 591.08990479 C-49.44356187 598.90419918 -44.01541192 604.76352472 -36.81587219 608.75396729 C-28.50794063 611.98482956 -17.35255113 611.64258295 -9.06587219 608.56646729 C-0.12920214 604.59642922 4.12641225 597.36492554 9.18412781 589.37896729 C9.93501285 588.2091439 10.68690105 587.03996387 11.43974304 585.87139893 C12.97571146 583.48521372 14.50696237 581.09610463 16.03471375 578.70465088 C18.65395954 574.61035613 21.31648203 570.54481805 23.98124695 566.4800415 C30.47823326 556.56838427 36.87855581 546.59646606 43.25541687 536.60723877 C49.04061988 527.55357941 54.90305705 518.55176322 60.78178406 509.55865479 C65.19287255 502.81057378 69.57048947 496.04101314 73.94487 489.269104 C80.19844754 479.5884909 86.46359071 469.91548795 92.74662781 460.25396729 C98.65765222 451.16331704 98.65765222 451.16331704 104.55912781 442.06646729 C104.99732849 441.39019287 105.43552917 440.71391846 105.88700867 440.01715088 C108.56005599 435.88396391 111.21404377 431.73913048 113.85600281 427.58599854 C123.77876626 411.99859195 133.94350094 396.59174012 144.24662781 381.25396729 C145.2508075 381.59170166 146.25498718 381.92943604 147.28959656 382.27740479 C148.67093457 382.72845393 150.05245523 383.17894401 151.43412781 383.62896729 C152.08832703 383.85068604 152.74252625 384.07240479 153.41654968 384.30084229 C164.4307977 387.85045776 175.7357535 388.66732894 187.24662781 388.69146729 C188.49887146 388.69460938 189.75111511 388.69775146 191.04130554 388.70098877 C201.58716626 388.56708803 211.25364715 386.87712489 221.32499695 383.82647705 C223.28678051 383.24200463 225.25959389 382.74464133 227.24662781 382.25396729 C227.44775307 404.04690372 227.63098923 425.83992617 227.79321575 447.63318825 C227.86896092 457.75329109 227.95045116 467.87328547 228.04570007 477.9932251 C228.1287516 486.81880122 228.20078551 495.64438858 228.25986034 504.47015893 C228.29148701 509.13876624 228.32844615 513.80718768 228.37862206 518.47563553 C228.42578431 522.87993911 228.45808784 527.28411439 228.47954941 531.6886158 C228.4898969 533.29533664 228.50542987 534.90203489 228.52686882 536.50864601 C228.78283043 556.23932679 225.04276834 572.01920135 211.04740906 586.45709229 C209.33128545 588.17082242 207.6023426 589.87197659 205.85209656 591.55084229 C199.63257009 597.51984492 194.78451508 603.96877108 190.24662781 611.25396729 C189.69362 612.13826416 189.14061218 613.02256104 188.57084656 613.93365479 C183.85747856 622.66998195 183.92140333 632.64528208 185.84037781 642.21490479 C190.91466383 657.10887395 207.02620716 667.4541405 219.74662781 675.25396729 C239.41367946 687.31328519 239.41367946 687.31328519 245.18412781 696.87896729 C246.00203796 698.19767822 246.00203796 698.19767822 246.83647156 699.54302979 C251.30499812 708.1334936 251.56713321 717.97563621 249.59428406 727.35552979 C238.71873646 759.74879173 200.2319827 778.34834851 172.33841133 793.5259676 C170.05778296 794.80061218 167.84283084 796.11301111 165.62093925 797.48211193 C154.95399685 803.84438803 146.56414635 805.54933852 134.27836609 805.33917236 C132.5530011 805.34319541 130.82764159 805.35113309 129.10231018 805.36262512 C124.46919853 805.38208583 119.83809454 805.34612509 115.20525217 805.29823899 C110.32152908 805.25640641 105.43783893 805.2633097 100.55397034 805.26365662 C92.35499398 805.25718092 84.15677471 805.21640961 75.95805359 805.15264893 C66.52793173 805.07953161 57.09855389 805.05133819 47.66816533 805.04950029 C37.560896 805.04723714 27.45389709 805.01440037 17.34672689 804.97148681 C14.46473388 804.96108084 11.58277207 804.95596328 8.7007637 804.95197487 C4.14163571 804.9439605 -0.41693858 804.91501685 -4.97585678 804.87103844 C-6.63201016 804.8579557 -8.28823022 804.85121324 -9.94443512 804.85191345 C-25.09165608 804.85003491 -40.11673042 802.62410105 -54.31587219 797.12896729 C-55.47155701 796.68955811 -55.47155701 796.68955811 -56.65058899 796.24127197 C-89.951432 783.08220449 -116.48683751 757.00694452 -130.75337219 724.25396729 C-131.17441223 723.2900708 -131.17441223 723.2900708 -131.60395813 722.30670166 C-136.15421479 711.64120018 -138.82700801 700.67185352 -140.75337219 689.25396729 C-141.00873249 687.74789027 -141.00873249 687.74789027 -141.26925159 686.21138746 C-141.82624671 681.65825815 -141.89401445 677.23141831 -141.88479996 672.65033245 C-141.88685259 671.69709389 -141.88890522 670.74385534 -141.89102006 669.76173076 C-141.89668367 666.56102508 -141.89523359 663.36036252 -141.89381409 660.15965271 C-141.8963981 657.84417668 -141.89941136 655.5287011 -141.90281749 653.21322614 C-141.91088672 646.84470436 -141.91267702 640.47619385 -141.91341496 634.10766757 C-141.91459272 627.94607588 -141.92139389 621.78448901 -141.92749337 615.62290065 C-141.94354434 599.11565724 -141.94945597 582.60841477 -141.95424212 566.10116497 C-141.95657933 558.28829874 -141.96018216 550.47543323 -141.96393749 542.66256757 C-141.97677324 515.90618345 -141.98749158 489.14979973 -141.99094009 462.39341259 C-141.99116172 460.71412858 -141.99138351 459.03484457 -141.99160545 457.35556056 C-141.99182608 455.67226687 -141.99204657 453.98897319 -141.99226689 452.3056795 C-141.99270944 448.92882295 -141.99315656 445.55196641 -141.99360657 442.17510986 C-141.99371596 441.33784729 -141.99382535 440.50058473 -141.99393805 439.63795056 C-141.99756679 412.5040169 -142.01347978 385.37010999 -142.03679693 358.23618657 C-142.06141688 329.53359678 -142.07511397 300.83102226 -142.07630801 272.1284216 C-142.07647946 268.97483368 -142.07669488 265.82124577 -142.07694244 262.66765785 C-142.07699821 261.89118325 -142.07705398 261.11470864 -142.07711144 260.31470451 C-142.07826011 247.84120105 -142.0892666 235.36772513 -142.1038295 222.89423096 C-142.11822682 210.34508001 -142.1214133 197.79596419 -142.11338952 185.24680724 C-142.10933765 178.4537738 -142.11038533 171.66083807 -142.12444687 164.86781502 C-142.13721928 158.64042551 -142.13595884 152.41319725 -142.12385616 146.18580786 C-142.12190493 143.9414302 -142.12495078 141.69704099 -142.13370052 139.45267954 C-142.19175829 123.54419237 -141.55829507 107.62182832 -136.25337219 92.44146729 C-136.00619446 91.72120361 -135.75901672 91.00093994 -135.50434875 90.2588501 C-127.59787855 68.42060201 -114.49040253 48.26222372 -96.75337219 33.25396729 C-96.18384827 32.73777832 -95.61432434 32.22158936 -95.02754211 31.6897583 C-78.48377288 16.80057026 -57.53259621 6.67992629 -35.75337219 2.25396729 C-34.95377966 2.08710993 -34.15418713 1.92025258 -33.33036453 1.74833894 C-22.26262288 -0.26772842 -11.211978 -0.02435877 0 0 Z " fill="#2EC6E9" transform="translate(253.7533721923828,109.74603271484375)"/>
<path d="M0 0 C12.14798767 10.14377422 19.24011507 24.04924231 20.82421875 39.6953125 C21.52179457 54.77195123 15.93909249 69.14895221 6.2578125 80.5 C-3.49261656 90.80572987 -15.64174117 96.4649231 -29.75390625 97.41015625 C-44.91732634 97.79382915 -59.46927429 93.64538579 -70.69140625 83.02734375 C-76.28069708 77.11148762 -80.18764467 70.63730055 -83.4296875 63.1875 C-83.75195312 62.4759375 -84.07421875 61.764375 -84.40625 61.03125 C-88.59382844 49.91655583 -88.08585248 34.77054943 -83.6875 23.8515625 C-83.27242187 22.97242188 -82.85734375 22.09328125 -82.4296875 21.1875 C-81.99398437 20.24648437 -81.55828125 19.30546875 -81.109375 18.3359375 C-74.61127325 5.44626026 -64.57179679 -4.06857584 -50.9296875 -9.03515625 C-32.93310643 -14.63096818 -15.153519 -11.30423282 0 0 Z " fill="#FEFEFE" transform="translate(766.4296875,218.8125)"/>
<path d="M0 0 C3.7147856 4.33391653 6.50019957 9.03323191 9.375 13.9375 C15.46603108 24.20948602 21.8517525 34.27559762 28.29492188 44.32910156 C30.46090501 47.72197893 32.60263354 51.12975789 34.7434082 54.53857422 C39.234298 61.68935743 43.81659597 68.7596175 48.54150391 75.7578125 C52.29446595 81.35565979 55.69596969 87.12495273 59 93 C58.40276123 93.03440186 57.80552246 93.06880371 57.19018555 93.10424805 C43.25279109 93.96375846 30.3136818 95.75896047 17 100 C15.16115234 100.56074219 15.16115234 100.56074219 13.28515625 101.1328125 C3.26482876 104.5335213 -5.89581298 109.52207601 -15.22579956 114.4475708 C-35.48698421 125.11695025 -55.72519421 132.82501023 -79 131 C-81.23974609 129.98120117 -81.23974609 129.98120117 -83 129 C-82.54786133 128.31188232 -82.09572266 127.62376465 -81.62988281 126.91479492 C-72.80850928 113.4804198 -64.05476969 100.01235977 -55.50976562 86.39990234 C-47.78557721 74.12164036 -39.96376038 61.90699767 -32.03979492 49.75683594 C-26.92619426 41.9078023 -21.88036569 34.01598729 -16.83642578 26.12207031 C-11.2572983 17.39319378 -5.64119148 8.68886908 0 0 Z " fill="#2FC2EB" transform="translate(512,314)"/>
<path d="M0 0 C0.33 0 0.66 0 1 0 C1.05138144 52.64380728 1.09913985 105.28761674 1.12702942 157.93144226 C1.12744359 158.71122351 1.12785776 159.49100476 1.12828448 160.29441575 C1.13726428 177.24324977 1.14557467 194.19208406 1.15319599 211.14091875 C1.15693783 219.45323951 1.16082752 227.7655602 1.16479492 236.07788086 C1.1651872 236.90503413 1.16557948 237.7321874 1.16598364 238.58440593 C1.17875599 265.37011454 1.20128118 292.15580409 1.22889166 318.94150117 C1.25722543 346.47904982 1.27566467 374.01658793 1.28174497 401.55415091 C1.28260937 405.44820683 1.28358628 409.34226271 1.28463173 413.23631859 C1.284834 414.00268607 1.28503627 414.76905355 1.28524467 415.55864428 C1.28878276 427.86961721 1.30267782 440.18055747 1.3204961 452.49151711 C1.33820893 464.8835874 1.34489119 477.27562546 1.34050413 489.66770796 C1.33843047 496.37575879 1.34149055 503.08370264 1.35761642 509.79174232 C1.37229519 515.94297603 1.37290082 522.0940507 1.36269668 528.24529197 C1.3614369 530.46096177 1.3651744 532.6766418 1.37464955 534.8922917 C1.51647042 570.127812 -7.246575 604.05745775 -31 631 C-31.66 630.34 -32.32 629.68 -33 629 C-32.01 628.34 -31.02 627.68 -30 627 C-28.80767387 624.94996045 -28.80767387 624.94996045 -28 623 C-27.34 623 -26.68 623 -26 623 C-25.01 619.7 -24.02 616.4 -23 613 C-22.01 613.33 -21.02 613.66 -20 614 C-19.87625 613.2575 -19.7525 612.515 -19.625 611.75 C-19.04513299 609.19858515 -18.26291261 607.2732427 -17 605 C-16.34 605 -15.68 605 -15 605 C-14.34 602.03 -13.68 599.06 -13 596 C-12.34 596 -11.68 596 -11 596 C-10.87882813 595.43152344 -10.75765625 594.86304688 -10.6328125 594.27734375 C-10.46523438 593.50519531 -10.29765625 592.73304688 -10.125 591.9375 C-9.96257813 591.18339844 -9.80015625 590.42929687 -9.6328125 589.65234375 C-8.59923151 585.32023578 -7.33439977 581.06459302 -6 576.81640625 C-0.99948293 560.54519251 -0.71951473 544.56998881 -0.81237793 527.69042969 C-0.81678385 525.49738988 -0.82023281 523.30434797 -0.82280445 521.11130524 C-0.83008311 516.42147182 -0.84344387 511.73171171 -0.86169529 507.04190826 C-0.89066684 499.5350086 -0.90524766 492.02812308 -0.91710663 484.5211792 C-0.9213065 481.94609447 -0.92552996 479.37100979 -0.92977667 476.79592514 C-0.93188672 475.51250591 -0.93399677 474.22908668 -0.93617076 472.90677595 C-0.9431534 468.97656573 -0.95147212 465.04636045 -0.96018839 461.11615372 C-1.01284938 436.85395804 -0.97741828 412.59236044 -0.91625202 388.33021975 C-0.90268588 382.84892252 -0.89053286 377.36762216 -0.87821198 371.88632202 C-0.85532526 361.8014685 -0.83114263 351.71661855 -0.80645475 341.6317693 C-0.77741046 329.73934544 -0.74993543 317.84691807 -0.72249681 305.95449042 C-0.6735935 284.7753219 -0.62356767 263.59615621 -0.57275391 242.41699219 C-0.52362375 221.93847801 -0.47507339 201.45996258 -0.42724609 180.98144531 C-0.4227656 179.06312676 -0.4227656 179.06312676 -0.41819459 177.10605431 C-0.40320154 170.68534217 -0.38821928 164.26463002 -0.37324238 157.84391785 C-0.2505001 105.22927457 -0.12590213 52.61463581 0 0 Z " fill="#00D4DB" transform="translate(911,235)"/>
<path d="M0 0 C0.94796652 -0.00115384 1.89593305 -0.00230769 2.87262583 -0.0034965 C6.04920351 -0.00614342 9.22573052 -0.00165684 12.4023056 0.00279331 C14.70259917 0.00235722 17.00289269 0.0014816 19.30318594 0.00020415 C25.62439251 -0.00203329 31.94558216 0.00197024 38.26678658 0.00698221 C44.38331112 0.0113451 50.49983582 0.0100218 56.61636145 0.00930037 C69.12662086 0.00798725 81.63687499 0.01132489 94.14713287 0.01731777 C106.53294653 0.02323582 118.91875799 0.02708393 131.30457306 0.02817059 C132.4599614 0.0282737 132.4599614 0.0282737 133.63869091 0.02837889 C137.55048422 0.02871722 141.46227752 0.02901861 145.37407082 0.02930576 C173.0776164 0.03140589 200.7811591 0.03814246 228.48470306 0.04760838 C255.39746333 0.05679348 282.3102228 0.06387677 309.22298431 0.06811619 C310.05262719 0.06824771 310.88227007 0.06837924 311.73705364 0.06851475 C320.06870703 0.06983328 328.40036043 0.07110909 336.73201384 0.07235361 C353.70438653 0.07488979 370.67675916 0.07771104 387.64913177 0.08070469 C388.4294853 0.08084198 389.20983882 0.08097927 390.01383942 0.08112072 C442.12001393 0.09032059 494.22618679 0.10618651 546.33235931 0.12304783 C546.33235931 0.45304783 546.33235931 0.78304783 546.33235931 1.12304783 C545.17986028 1.12478408 544.02736124 1.12652033 542.83993798 1.12830919 C492.03826881 1.20490663 441.23660168 1.28271918 390.43494415 1.36671543 C389.28094661 1.36862295 389.28094661 1.36862295 388.10363599 1.37056901 C371.38325921 1.39821452 354.6628828 1.42607761 337.94250675 1.45416477 C329.74262369 1.46793774 321.54274055 1.48166264 313.34285736 1.49536228 C312.52687828 1.49672637 311.71089919 1.49809045 310.87019347 1.49949587 C284.43057463 1.54367282 257.99095202 1.58467672 231.55132561 1.62403196 C204.37707993 1.66449745 177.20284125 1.70817047 150.02860727 1.75586894 C146.18884531 1.76260731 142.34908328 1.76930909 138.50932121 1.77598858 C137.37576099 1.77796217 137.37576099 1.77796217 136.21930056 1.77997563 C124.06337321 1.80104571 111.90744317 1.81874298 99.75150875 1.83517314 C87.52533237 1.85177043 75.29916597 1.87193487 63.07300142 1.89571624 C56.45079608 1.90849896 49.82859575 1.91959233 43.20638084 1.92646694 C37.14061796 1.93279892 31.07488046 1.94365902 25.00913157 1.95808113 C22.81780047 1.96249905 20.62646528 1.96527239 18.43512992 1.96620982 C-1.35454772 1.57561588 -1.35454772 1.57561588 -20.66764069 5.12304783 C-21.92576569 5.24679783 -23.18389069 5.37054783 -24.48014069 5.49804783 C-28.77761954 5.95041402 -32.42688751 7.47737129 -36.37076569 9.18554783 C-38.47657515 10.0450619 -40.45839753 10.60755776 -42.66764069 11.12304783 C-44.21455013 11.58500884 -45.75626038 12.06469265 -47.29264069 12.56054783 C-48.06865631 12.80675877 -48.84467194 13.0529697 -49.64420319 13.30664158 C-51.84766009 14.04228894 -51.84766009 14.04228894 -53.66764069 16.12304783 C-57.1228116 18.48711214 -58.34676183 19.12304783 -62.66764069 19.12304783 C-62.99764069 20.11304783 -63.32764069 21.10304783 -63.66764069 22.12304783 C-64.98764069 21.79304783 -66.30764069 21.46304783 -67.66764069 21.12304783 C-47.751005 7.45761897 -24.16493116 -0.07288359 0 0 Z " fill="#00A6E7" transform="translate(240.66764068603516,109.87695217132568)"/>
<path d="M0 0 C0.66 0 1.32 0 2 0 C1.4594836 29.23702363 -10.49685261 59.23762277 -30 81 C-30.66 80.34 -31.32 79.68 -32 79 C-30.515 78.01 -30.515 78.01 -29 77 C-27.80767387 74.94996045 -27.80767387 74.94996045 -27 73 C-26.34 73 -25.68 73 -25 73 C-23.515 68.05 -23.515 68.05 -22 63 C-21.01 63.33 -20.02 63.66 -19 64 C-18.87625 63.2575 -18.7525 62.515 -18.625 61.75 C-18.04513299 59.19858515 -17.26291261 57.2732427 -16 55 C-15.34 55 -14.68 55 -14 55 C-13.34 52.03 -12.68 49.06 -12 46 C-11.34 46 -10.68 46 -10 46 C-9.87882813 45.43152344 -9.75765625 44.86304688 -9.6328125 44.27734375 C-9.46523438 43.50519531 -9.29765625 42.73304688 -9.125 41.9375 C-8.88136719 40.80634766 -8.88136719 40.80634766 -8.6328125 39.65234375 C-7.59923151 35.32023578 -6.33439977 31.06459302 -5 26.81640625 C-2.26299951 17.91046325 -0.91287854 9.24890104 0 0 Z " fill="#1CDEDE" transform="translate(910,785)"/>
<path d="M0 0 C3.92565298 1.48904078 4.94100382 3.43635276 7 7 C8.56081321 8.78951848 10.1582566 10.53169126 11.79296875 12.25390625 C13 14 13 14 13 18 C13.66 18 14.32 18 15 18 C15.94401042 19.72526042 16.88802083 21.45052083 17.83203125 23.17578125 C18.93272816 25.04516656 18.93272816 25.04516656 20.515625 26.484375 C22.19022342 28.19422813 22.96378452 29.76022203 23.9375 31.9375 C25.17700576 34.55898344 25.94986237 35.95428628 28.125 37.9375 C31.04903362 41.15393699 31.29774962 44.8079952 32 49 C32.268125 50.11375 32.53625 51.2275 32.8125 52.375 C33.24737926 60.7826656 30.25289243 67.61134705 25 74 C25 70.76647853 25.61759955 69.54350093 27 66.6875 C29.8790218 59.57279504 30.84761607 51.79245923 28.03759766 44.50366211 C23.47907155 34.79031532 17.20326622 26.11464042 11.125 17.3125 C9.52253542 14.97969801 7.92220295 12.6454685 6.32418823 10.30961609 C5.33672086 8.86746967 4.3463512 7.42730538 3.35281372 5.98933411 C0 1.11037433 0 1.11037433 0 0 Z " fill="#13D6E0" transform="translate(794,637)"/>
<path d="M0 0 C0.763125 0.10183594 1.52625 0.20367187 2.3125 0.30859375 C2.869375 0.39238281 3.42625 0.47617188 4 0.5625 C4 0.8925 4 1.2225 4 1.5625 C3.14277344 1.61148438 2.28554687 1.66046875 1.40234375 1.7109375 C-4.6947744 2.10962166 -10.14783901 2.72652793 -16 4.5625 C-17.258125 4.68625 -18.51625 4.81 -19.8125 4.9375 C-24.10997886 5.3898662 -27.75924683 6.91682347 -31.703125 8.625 C-33.80893446 9.48451407 -35.79075684 10.04700993 -38 10.5625 C-39.54690944 11.02446101 -41.08861969 11.50414482 -42.625 12 C-43.40101563 12.24621094 -44.17703125 12.49242188 -44.9765625 12.74609375 C-47.18001941 13.48174111 -47.18001941 13.48174111 -49 15.5625 C-52.45517091 17.92656431 -53.67912114 18.5625 -58 18.5625 C-58.33 19.5525 -58.66 20.5425 -59 21.5625 C-60.32 21.2325 -61.64 20.9025 -63 20.5625 C-46.32599206 9.12193981 -20.8421022 -2.93092062 0 0 Z " fill="#269DF1" transform="translate(236,110.4375)"/>
<path d="M0 0 C-1.450954 3.82524236 -3.38181932 5.19090966 -7 7 C-7.66 7 -8.32 7 -9 7 C-9 7.66 -9 8.32 -9 9 C-10.43359375 10.375 -10.43359375 10.375 -12.4375 12 C-21.28241364 19.36519224 -21.28241364 19.36519224 -27 29 C-28.64488294 30.68816933 -30.31337542 32.35353315 -32 34 C-34.66180946 37.03876306 -34.66180946 37.03876306 -35 41 C-36.98 41.495 -36.98 41.495 -39 42 C-34.39526359 28.86797394 -23.42271521 17.79788128 -13 9 C-11.56083187 7.73105606 -10.12329665 6.46025747 -8.6875 5.1875 C-2.83524027 0 -2.83524027 0 0 0 Z " fill="#269CF2" transform="translate(170,134)"/>
<path d="M0 0 C0.70125 0.721875 1.4025 1.44375 2.125 2.1875 C9.63117982 9.63060268 17.25170244 15.05979654 28.125 15.25 C33.85153843 15.21166976 38.63030911 13.84732681 44 12 C45.32964525 11.65224663 46.66196647 11.31393497 48 11 C48 11.66 48 12.32 48 13 C41.20887144 17.41041833 35.23115674 18.46240103 27.3125 18.0625 C26.51739014 18.02906494 25.72228027 17.99562988 24.90307617 17.96118164 C19.82068741 17.58085966 16.04843122 16.35997562 11.61791992 13.83764648 C10.00763641 12.84674481 10.00763641 12.84674481 8 13 C7.71125 12.360625 7.4225 11.72125 7.125 11.0625 C6.17176549 8.84793921 6.17176549 8.84793921 4 8 C4 7.34 4 6.68 4 6 C3.34 6 2.68 6 2 6 C1.34 4.02 0.68 2.04 0 0 Z " fill="#13D3E0" transform="translate(764,706)"/>
<path d="M0 0 C0.66 0.33 1.32 0.66 2 1 C-2.67064248 12.12180614 -16.29835565 20.55601564 -26 27 C-26.99 27.33 -27.98 27.66 -29 28 C-29 27.34 -29 26.68 -29 26 C-28.34 26 -27.68 26 -27 26 C-27 25.34 -27 24.68 -27 24 C-26.030625 23.566875 -25.06125 23.13375 -24.0625 22.6875 C-20.72268235 21.2985139 -20.72268235 21.2985139 -20 18 C-17.38502661 16.76132839 -14.74488051 15.91496017 -12 15 C-12 14.34 -12 13.68 -12 13 C-11.34 13 -10.68 13 -10 13 C-10 12.01 -10 11.02 -10 10 C-9.01 10 -8.02 10 -7 10 C-6.34 8.68 -5.68 7.36 -5 6 C-4.34 6 -3.68 6 -3 6 C-2.87625 5.195625 -2.7525 4.39125 -2.625 3.5625 C-2.315625 2.2940625 -2.315625 2.2940625 -2 1 C-1.34 0.67 -0.68 0.34 0 0 Z " fill="#17DDDE" transform="translate(876,866)"/>
<path d="M0 0 C1.98 0.99 1.98 0.99 4 2 C4 2.66 4 3.32 4 4 C4.45375 4.45246094 4.9075 4.90492188 5.375 5.37109375 C7.64951585 7.65107719 8.63653597 10.24924922 9.9375 13.16015625 C11.00588976 15.32396448 11.00588976 15.32396448 14 17 C15.1875 20.625 15.1875 20.625 16 24 C16.66 24 17.32 24 18 24 C19.6875 26.3125 19.6875 26.3125 21 29 C20.67 29.99 20.34 30.98 20 32 C15.1521227 25.301115 10.59282434 18.41590505 6.0625 11.5 C5.47057861 10.60313477 4.87865723 9.70626953 4.26879883 8.78222656 C3.71732178 7.9362793 3.16584473 7.09033203 2.59765625 6.21875 C2.09758057 5.45498047 1.59750488 4.69121094 1.08227539 3.90429688 C0 2 0 2 0 0 Z " fill="#1AD4E1" transform="translate(759,583)"/>
<path d="M0 0 C2.92193647 2.92193647 3.22399096 6.45532822 4.0625 10.375 C4.2387793 11.18050293 4.41505859 11.98600586 4.59667969 12.81591797 C5.93957873 19.18389953 6.74474228 25.49092804 7 32 C6.01 32.495 6.01 32.495 5 33 C3.12606758 29.25213516 3.58558263 24.71165257 3.37890625 20.578125 C3.00925171 17.08736662 2.1377351 14.30253068 1 11 C0.73004677 9.04920594 0.51871703 7.0891328 0.375 5.125 C0.30023437 4.15820312 0.22546875 3.19140625 0.1484375 2.1953125 C0.09945312 1.47085938 0.05046875 0.74640625 0 0 Z " fill="#20D6E3" transform="translate(905,203)"/>
<path d="M0 0 C0.33 0 0.66 0 1 0 C1.25328119 5.06562383 0.33583899 9.15758367 -1 14 C-0.34 14.33 0.32 14.66 1 15 C0.52949219 15.36738281 0.05898437 15.73476562 -0.42578125 16.11328125 C-2.5790884 18.69404391 -2.72575192 20.88422526 -3.1875 24.1875 C-3.42533203 25.81751953 -3.42533203 25.81751953 -3.66796875 27.48046875 C-3.77753906 28.31191406 -3.88710937 29.14335937 -4 30 C-4.33 30 -4.66 30 -5 30 C-5.67275462 20.13293227 -4.49947143 8.99894286 0 0 Z " fill="#279CF1" transform="translate(118,203)"/>
<path d="M0 0 C0.66 0 1.32 0 2 0 C2.10709533 11.72098848 1.99140649 23.31556633 1 35 C0.67 35 0.34 35 0 35 C-0.167247 30.176384 -0.32784308 25.35261089 -0.48217773 20.52856445 C-0.53566959 18.88625066 -0.59100431 17.24399584 -0.64819336 15.60180664 C-0.72990479 13.24638594 -0.80506639 10.89083518 -0.87890625 8.53515625 C-0.90594131 7.79660904 -0.93297638 7.05806183 -0.96083069 6.2971344 C-1.0129438 4.53214384 -1.0118612 2.7657199 -1 1 C-0.67 0.67 -0.34 0.34 0 0 Z " fill="#23C1E8" transform="translate(479,492)"/>
<path d="M0 0 C2.81173118 2.67270627 5.04963712 5.34085678 7.1640625 8.58984375 C7.72867188 9.45673828 8.29328125 10.32363281 8.875 11.21679688 C9.4525 12.11462891 10.03 13.01246094 10.625 13.9375 C11.21023438 14.83146484 11.79546875 15.72542969 12.3984375 16.64648438 C15.01803053 20.69303462 17.31556527 24.46448121 19 29 C13.05792499 23.38804027 9.07541967 16.61534634 4.75 9.75 C4.29109375 9.03070312 3.8321875 8.31140625 3.359375 7.5703125 C2.92625 6.88195312 2.493125 6.19359375 2.046875 5.484375 C1.65338867 4.86272461 1.25990234 4.24107422 0.85449219 3.60058594 C0 2 0 2 0 0 Z " fill="#13D1E2" transform="translate(717,634)"/>
<path d="M0 0 C0.33 0.66 0.66 1.32 1 2 C-0.109375 4.64453125 -0.109375 4.64453125 -1.75 7.8125 C-2.28109375 8.85019531 -2.8121875 9.88789062 -3.359375 10.95703125 C-4.41794818 12.92043246 -5.53609691 14.85337876 -6.72265625 16.7421875 C-8.24940519 18.91004822 -8.24940519 18.91004822 -7.6875 21.3125 C-7.460625 21.869375 -7.23375 22.42625 -7 23 C-8.66666667 23 -10.33333333 23 -12 23 C-12.33 23.99 -12.66 24.98 -13 26 C-13.66 25.67 -14.32 25.34 -15 25 C-14.41992188 24.11699219 -13.83984375 23.23398437 -13.2421875 22.32421875 C-8.49231498 15.04413546 -4.01701882 7.71897735 0 0 Z " fill="#14D0E2" transform="translate(575,865)"/>
<path d="M0 0 C2.64 0 5.28 0 8 0 C3.67008661 4.32991339 -4.39229274 4.84896258 -10.3046875 5.19140625 C-12.87716616 5.18806537 -15.43154451 5.13897455 -18 5 C-18 4.67 -18 4.34 -18 4 C-11.88019467 2.59545452 -6.28260706 1.76731085 0 2 C0 1.34 0 0.68 0 0 Z " fill="#17DADE" transform="translate(806,908)"/>
<path d="M0 0 C0.99 0.33 1.98 0.66 3 1 C3 1.66 3 2.32 3 3 C3.66 3.66 4.32 4.32 5 5 C5.33 5.99 5.66 6.98 6 8 C6.66 8.66 7.32 9.32 8 10 C9.09702426 11.64414775 10.15584564 13.31406604 11.1875 15 C11.73792969 15.886875 12.28835938 16.77375 12.85546875 17.6875 C13.23316406 18.450625 13.61085938 19.21375 14 20 C13.67 20.66 13.34 21.32 13 22 C11.01135115 19.08969491 9.03578914 16.1707367 7.0625 13.25 C6.49853516 12.425 5.93457031 11.6 5.35351562 10.75 C4.81533203 9.95078125 4.27714844 9.1515625 3.72265625 8.328125 C3.22515869 7.5949707 2.72766113 6.86181641 2.21508789 6.10644531 C1.02697552 4.04676407 0.44310902 2.32345245 0 0 Z " fill="#17CDE3" transform="translate(715,515)"/>
<path d="M0 0 C0.33 0.66 0.66 1.32 1 2 C-0.43775696 5.21783702 -2.04417512 8.06626269 -4 11 C-4.66 11 -5.32 11 -6 11 C-6.2475 11.928125 -6.495 12.85625 -6.75 13.8125 C-8.06454245 17.16458325 -8.97963384 18.1877803 -12 20 C-10.37885498 15.20178341 -7.70723241 11.3327141 -4.875 7.1875 C-4.40707031 6.49462891 -3.93914062 5.80175781 -3.45703125 5.08789062 C-2.30887563 3.38908895 -1.15500633 1.69415136 0 0 Z " fill="#1BBAE8" transform="translate(381,517)"/>
<path d="M0 0 C0 0.66 0 1.32 0 2 C-1.72343755 2.84511824 -3.45404053 3.67563354 -5.1875 4.5 C-6.15042969 4.9640625 -7.11335937 5.428125 -8.10546875 5.90625 C-10.98922693 6.99592921 -12.95354861 7.22277524 -16 7 C-13.6793693 3.51905395 -12.889061 3.4037923 -9 2.375 C-0.21505376 0 -0.21505376 0 0 0 Z " fill="#23D7E2" transform="translate(812,717)"/>
<path d="M0 0 C0.33 0.66 0.66 1.32 1 2 C-2.96 7.94 -2.96 7.94 -7 14 C-7.33 13.34 -7.66 12.68 -8 12 C-7.22265625 10.125 -7.22265625 10.125 -6.0625 8 C-4.43192464 5.15705586 -4.43192464 5.15705586 -4 2 C-2.68 1.34 -1.36 0.68 0 0 Z " fill="#1FB7E9" transform="translate(420,342)"/>
<path d="M0 0 C0.33 0.66 0.66 1.32 1 2 C1.99 2.33 2.98 2.66 4 3 C4.87890625 4.671875 4.87890625 4.671875 5.5625 6.75 C5.80742187 7.46671875 6.05234375 8.1834375 6.3046875 8.921875 C6.53414062 9.60765625 6.76359375 10.2934375 7 11 C7.66066719 12.66905395 8.32438252 14.3369416 9 16 C4.84366953 12.45942219 2.21869977 7.93751629 0 3 C0 2.01 0 1.02 0 0 Z " fill="#1BB4EA" transform="translate(126,838)"/>
<path d="M0 0 C1.10187303 3.30561908 0.98057073 3.75416981 -0.25 6.8125 C-0.52972656 7.50988281 -0.80945313 8.20726562 -1.09765625 8.92578125 C-2.29319804 11.67397471 -3.60712508 14.34690492 -5 17 C-6.31831625 13.04505124 -5.27915298 11.69818482 -3.625 7.9375 C-3.16351563 6.87402344 -2.70203125 5.81054688 -2.2265625 4.71484375 C-1.51096033 3.13094722 -0.77727919 1.55455838 0 0 Z " fill="#1B96F2" transform="translate(125,185)"/>
<path d="M0 0 C0 0.33 0 0.66 0 1 C-0.89203125 1.06058594 -1.7840625 1.12117188 -2.703125 1.18359375 C-4.45882812 1.30927734 -4.45882812 1.30927734 -6.25 1.4375 C-7.99023438 1.55931641 -7.99023438 1.55931641 -9.765625 1.68359375 C-12.30977376 1.93247787 -14.55953248 2.28114942 -17 3 C-17 2.01 -17 1.02 -17 0 C-11.06975197 -0.97040422 -5.93609666 -0.89316269 0 0 Z " fill="#2CA5F1" transform="translate(240,111)"/>
<path d="M0 0 C0.99 0.33 1.98 0.66 3 1 C3.144375 1.7425 3.28875 2.485 3.4375 3.25 C3.93694942 5.88015719 3.93694942 5.88015719 4.5625 7.9375 C5.13717171 10.64666665 5.06273345 13.23972841 5 16 C3.15209462 12.68983906 2.25458513 9.42826509 1.375 5.75 C0.98441406 4.13351562 0.98441406 4.13351562 0.5859375 2.484375 C0.39257812 1.66453125 0.19921875 0.8446875 0 0 Z " fill="#13D0E2" transform="translate(576,815)"/>
<path d="M0 0 C0.99 0 1.98 0 3 0 C1.55007731 4.10811428 -0.45407573 7.46855666 -3 11 C-3.33 11 -3.66 11 -4 11 C-4 9.35 -4 7.7 -4 6 C-3.01 6 -2.02 6 -1 6 C-0.67 4.02 -0.34 2.04 0 0 Z " fill="#24B8EA" transform="translate(431,322)"/>
<path d="M0 0 C0.33 0.66 0.66 1.32 1 2 C0.67 2.99 0.34 3.98 0 5 C2.64 5 5.28 5 8 5 C8 5.33 8 5.66 8 6 C3.71 6 -0.58 6 -5 6 C-3.35 4.02 -1.7 2.04 0 0 Z " fill="#19D4E3" transform="translate(547,907)"/>
<path d="M0 0 C3 1 3 1 4.5 3.9375 C4.995 4.948125 5.49 5.95875 6 7 C6.99 7.66 7.98 8.32 9 9 C8.67 9.99 8.34 10.98 8 12 C4.72257902 8.89973691 2.06895163 6.02901106 0 2 C0 1.34 0 0.68 0 0 Z " fill="#1AD5E1" transform="translate(780,615)"/>
<path d="M0 0 C0.33 1.32 0.66 2.64 1 4 C0.34 4 -0.32 4 -1 4 C-1.2475 4.61875 -1.495 5.2375 -1.75 5.875 C-3.20628639 8.35068687 -4.37812506 8.95125002 -7 10 C-5.33248852 6.05860922 -2.77289351 3.2107188 0 0 Z " fill="#18D1E2" transform="translate(556,896)"/>
<path d="M0 0 C0.33 0.66 0.66 1.32 1 2 C-1.03014771 5.84659566 -3.56941824 9.39603395 -6 13 C-6.66 12.67 -7.32 12.34 -8 12 C-5.36 8.04 -2.72 4.08 0 0 Z " fill="#1AB9E9" transform="translate(394,497)"/>
<path d="M0 0 C0 3.80345877 -1.13786331 4.77701015 -3.5 7.6875 C-4.1496875 8.49574219 -4.799375 9.30398438 -5.46875 10.13671875 C-5.9740625 10.75160156 -6.479375 11.36648438 -7 12 C-7.66 11.34 -8.32 10.68 -9 10 C-8.01 9.34 -7.02 8.68 -6 8 C-4.80767387 5.94996045 -4.80767387 5.94996045 -4 4 C-3.34 4 -2.68 4 -2 4 C-1.34 2.68 -0.68 1.36 0 0 Z " fill="#11DDDD" transform="translate(887,854)"/>
<path d="M0 0 C0.33 0 0.66 0 1 0 C2.26305335 5.07476794 3.27036084 9.72796354 3 15 C-0.25195722 10.12206417 -0.11325659 5.77608621 0 0 Z " fill="#19B0EA" transform="translate(114,798)"/>
<path d="M0 0 C0.99 0 1.98 0 3 0 C1.66511872 3.59391114 0.03977277 6.75490696 -2 10 C-3 8 -3 8 -2.44140625 6.0546875 C-2.15136719 5.33539063 -1.86132812 4.61609375 -1.5625 3.875 C-1.27503906 3.15054687 -0.98757813 2.42609375 -0.69140625 1.6796875 C-0.46324219 1.12539063 -0.23507812 0.57109375 0 0 Z " fill="#1EB7EB" transform="translate(466,267)"/>
<path d="M0 0 C0.33 0 0.66 0 1 0 C1.76173392 4.3164922 2.16063604 7.74433453 1 12 C-1.44576827 8.33134759 -1.23607254 6.32799657 -1 2 C-0.67 1.34 -0.34 0.68 0 0 Z " fill="#24DAE1" transform="translate(825,686)"/>
<path d="M0 0 C0.75 1.6875 0.75 1.6875 1 4 C-0.8125 6.75 -0.8125 6.75 -3 9 C-3.66 9 -4.32 9 -5 9 C-3.7508258 5.54074837 -2.32472205 2.85306797 0 0 Z " fill="#1CBBE9" transform="translate(273,684)"/>
<path d="M0 0 C0.33 0.66 0.66 1.32 1 2 C0.328125 3.91015625 0.328125 3.91015625 -0.75 6.0625 C-1.09546875 6.77535156 -1.4409375 7.48820313 -1.796875 8.22265625 C-3 10 -3 10 -6 11 C-4.54955729 6.89041233 -2.48889248 3.56741255 0 0 Z " fill="#1FBCE9" transform="translate(335,588)"/>
<path d="M0 0 C1 2 1 2 0.3125 4.5 C-1.15567038 7.29651501 -2.09303901 7.93411431 -5 9 C-3.7508258 5.54074837 -2.32472205 2.85306797 0 0 Z " fill="#2098F1" transform="translate(136,167)"/>
<path d="M0 0 C0.33 0.66 0.66 1.32 1 2 C0.00390625 3.9453125 0.00390625 3.9453125 -1.4375 6.125 C-1.91058594 6.84945312 -2.38367188 7.57390625 -2.87109375 8.3203125 C-3.24363281 8.87460937 -3.61617188 9.42890625 -4 10 C-4.66 9.67 -5.32 9.34 -6 9 C-4.02 6.03 -2.04 3.06 0 0 Z " fill="#1CBAE9" transform="translate(348,568)"/>
<path d="M0 0 C0.99 0.66 1.98 1.32 3 2 C0.6875 3.5625 0.6875 3.5625 -2 5 C-2.99 4.67 -3.98 4.34 -5 4 C-3 2 -3 2 0 0 Z " fill="#1CDCE0" transform="translate(838,896)"/>
<path d="M0 0 C-3.51187196 2.40814077 -5.72656908 3.36629408 -10 3 C-4.37755102 -1.45918367 -4.37755102 -1.45918367 0 0 Z " fill="#1C9AF0" transform="translate(201,119)"/>
</svg>
